<svg width="258" height="31" viewBox="0 0 258 31" fill="none" xmlns="http://www.w3.org/2000/svg">
<path d="M252.593 4.03448C252.593 3.33901 252.825 2.75946 253.289 2.29581C253.753 1.83216 254.333 1.60034 255.01 1.60034C255.687 1.60034 256.248 1.83216 256.712 2.29581C257.176 2.75946 257.409 3.3197 257.409 3.99585C257.409 4.672 257.176 5.23223 256.712 5.69588C256.248 6.15953 255.668 6.39135 255.01 6.39135C254.353 6.39135 253.772 6.15953 253.308 5.69588C252.844 5.25155 252.593 4.69131 252.593 4.03448ZM253.037 3.93789C253.037 4.53677 253.211 5.01973 253.579 5.42542C253.946 5.83111 254.43 6.04362 255.01 6.04362C255.571 6.04362 256.055 5.85043 256.422 5.44474C256.79 5.05837 256.964 4.5754 256.964 3.99585C256.964 3.41629 256.79 2.93332 256.422 2.54695C256.055 2.14126 255.571 1.94808 255.01 1.94808C254.449 1.94808 253.985 2.14126 253.598 2.52763C253.231 2.914 253.037 3.39697 253.037 3.93789ZM254.082 5.38678V2.58559H255.165C255.823 2.58559 256.151 2.85605 256.151 3.37765C256.151 3.82198 255.9 4.07312 255.416 4.15039L256.229 5.38678H255.765L254.991 4.18903H254.527V5.38678H254.082ZM254.527 2.95264V3.8413H254.972C255.204 3.8413 255.378 3.82198 255.474 3.78334C255.629 3.72538 255.707 3.59016 255.707 3.37765C255.707 3.08787 255.494 2.95264 255.088 2.95264H254.527Z" fill="white"/>
<path d="M48.0941 27.1587C46.3147 29.3417 43.6456 30.4236 40.0287 30.4236C36.4118 30.4236 33.7427 29.3417 31.9633 27.1587C30.1838 24.9757 29.3135 22.3484 29.3135 19.2768C29.3135 16.2631 30.2032 13.6357 31.9633 11.4141C33.7427 9.19247 36.4118 8.09131 40.0287 8.09131C43.6456 8.09131 46.3147 9.19247 48.0941 11.4141C49.8736 13.6357 50.7439 16.2437 50.7439 19.2768C50.7633 22.3484 49.8736 24.9757 48.0941 27.1587ZM43.7036 24.1257C44.5546 22.9859 44.9995 21.3632 44.9995 19.2768C44.9995 17.171 44.574 15.5676 43.7036 14.4278C42.8526 13.288 41.6147 12.7278 40.0094 12.7278C38.404 12.7278 37.1662 13.288 36.3151 14.4278C35.4448 15.5676 35.0192 17.171 35.0192 19.2768C35.0192 21.3825 35.4448 22.9859 36.3151 24.1257C37.1855 25.2655 38.4234 25.8258 40.0094 25.8258C41.6147 25.8258 42.8526 25.2655 43.7036 24.1257Z" fill="white"/>
<path d="M58.558 29.7087H53.0649V1.3877H58.558V29.7087Z" fill="white"/>
<path d="M73.6639 9.09574C74.6503 9.65598 75.4626 10.4287 76.0622 11.414V1.42627H81.6133V29.7087H76.275V26.8109C75.5013 28.0473 74.5923 28.9552 73.6058 29.5155C72.6001 30.0757 71.3622 30.3655 69.8729 30.3655C67.4165 30.3655 65.3663 29.3803 63.6836 27.3904C62.0009 25.4199 61.1692 22.8699 61.1692 19.7789C61.1692 16.205 62.0009 13.3845 63.6449 11.3367C65.289 9.28893 67.4939 8.26505 70.2597 8.26505C71.5556 8.26505 72.6774 8.53551 73.6639 9.09574ZM75.0178 24.029C75.8301 22.8699 76.2363 21.3824 76.2363 19.5471C76.2363 16.9777 75.5787 15.1618 74.2828 14.0413C73.4898 13.3845 72.5614 13.0367 71.5169 13.0367C69.9116 13.0367 68.7318 13.6356 67.9968 14.8527C67.2425 16.0698 66.875 17.5573 66.875 19.3539C66.875 21.2858 67.2618 22.8313 68.0161 23.9904C68.7704 25.1495 69.9309 25.729 71.4976 25.729C73.0256 25.7484 74.2054 25.1688 75.0178 24.029Z" fill="white"/>
<path d="M98.8465 20.9768C99.0399 22.2711 99.3881 23.2371 99.9297 23.8746C100.916 25.0337 102.599 25.6326 104.978 25.6326C106.409 25.6326 107.57 25.478 108.459 25.1689C110.142 24.5701 110.993 23.4882 110.993 21.8848C110.993 20.9575 110.587 20.2234 109.755 19.7211C108.923 19.2188 107.608 18.7745 105.809 18.3881L102.734 17.712C99.7169 17.0551 97.6473 16.321 96.5062 15.5483C94.5914 14.2346 93.6436 12.2062 93.6436 9.42429C93.6436 6.89356 94.572 4.78783 96.4482 3.10712C98.3243 1.4264 101.071 0.595703 104.688 0.595703C107.705 0.595703 110.297 1.38777 112.424 2.97189C114.552 4.55601 115.674 6.85492 115.79 9.86862H110.103C110.007 8.16859 109.233 6.95152 107.821 6.23673C106.873 5.75376 105.693 5.52194 104.282 5.52194C102.715 5.52194 101.458 5.83104 100.529 6.44923C99.6008 7.06743 99.1366 7.91745 99.1366 9.0186C99.1366 10.0232 99.6008 10.7959 100.51 11.2789C101.109 11.6073 102.367 12.013 104.282 12.4573L109.252 13.6357C111.438 14.1573 113.063 14.8335 114.165 15.6835C115.848 17.0165 116.699 18.9484 116.699 21.4598C116.699 24.0485 115.693 26.1928 113.701 27.9122C111.689 29.6315 108.865 30.4815 105.21 30.4815C101.477 30.4815 98.5371 29.6315 96.3902 27.9508C94.2432 26.2701 93.1794 23.9519 93.1794 20.9961H98.8465V20.9768Z" fill="white"/>
<path d="M117.588 12.8631V8.96071H120.509V3.10718H125.944V8.94139H129.348V12.8437H125.944V23.9326C125.944 24.7826 126.06 25.3235 126.273 25.5361C126.486 25.7486 127.162 25.8451 128.284 25.8451C128.458 25.8451 128.632 25.8451 128.807 25.8451C129 25.8451 129.174 25.8258 129.348 25.8065V29.902L126.756 29.9986C124.165 30.0952 122.385 29.6316 121.437 28.6463C120.818 28.0281 120.509 27.0429 120.509 25.7486V12.8631H117.588Z" fill="white"/>
<path d="M140.663 16.9778C141.688 16.8426 142.423 16.688 142.848 16.4948C143.641 16.1664 144.028 15.6448 144.028 14.93C144.028 14.08 143.719 13.4812 143.119 13.1527C142.52 12.8243 141.63 12.6698 140.45 12.6698C139.135 12.6698 138.207 12.9789 137.665 13.6357C137.278 14.1187 137.007 14.7562 136.891 15.5482H131.592C131.708 13.713 132.23 12.2061 133.139 11.0277C134.59 9.17311 137.104 8.26514 140.644 8.26514C142.945 8.26514 144.995 8.72878 146.794 9.63676C148.593 10.5447 149.483 12.2641 149.483 14.7948V24.3961C149.483 25.0723 149.502 25.8644 149.521 26.811C149.56 27.5258 149.676 28.0087 149.85 28.2792C150.024 28.5303 150.295 28.7428 150.662 28.9167V29.7281H144.705C144.531 29.3031 144.415 28.9167 144.357 28.5303C144.299 28.1633 144.241 27.7383 144.202 27.2553C143.448 28.086 142.558 28.7815 141.572 29.361C140.392 30.0372 139.038 30.3849 137.549 30.3849C135.634 30.3849 134.067 29.844 132.81 28.7621C131.572 27.6803 130.934 26.1541 130.934 24.1643C130.934 21.595 131.94 19.721 133.932 18.5619C135.034 17.9244 136.64 17.4801 138.767 17.2096L140.663 16.9778ZM144.009 19.5279C143.661 19.7404 143.313 19.9142 142.945 20.0495C142.578 20.1847 142.094 20.3006 141.475 20.4165L140.218 20.6483C139.038 20.8608 138.207 21.112 137.704 21.4018C136.833 21.904 136.408 22.6768 136.408 23.72C136.408 24.6473 136.679 25.3234 137.201 25.7484C137.723 26.1735 138.361 26.3666 139.116 26.3666C140.315 26.3666 141.417 26.0189 142.423 25.3234C143.429 24.628 143.951 23.3723 143.99 21.537V19.5279H144.009Z" fill="white"/>
<path d="M169.636 9.96517C171.01 11.105 171.706 12.9789 171.706 15.6062V29.7088H166.078V16.9585C166.078 15.8573 165.923 15.0073 165.633 14.4278C165.091 13.3459 164.085 12.805 162.577 12.805C160.739 12.805 159.463 13.5971 158.767 15.1619C158.418 15.9926 158.225 17.0551 158.225 18.3494V29.6894H152.732V8.80606H158.051V11.8584C158.747 10.7766 159.424 10.0038 160.043 9.54016C161.165 8.69015 162.596 8.26514 164.318 8.26514C166.503 8.26514 168.263 8.82537 169.636 9.96517Z" fill="white"/>
<path d="M186.367 9.09574C187.354 9.65598 188.147 10.4287 188.766 11.414V1.42627H194.336V29.7087H188.998V26.8109C188.224 28.0473 187.315 28.9552 186.328 29.5155C185.323 30.0757 184.085 30.3655 182.596 30.3655C180.139 30.3655 178.089 29.3803 176.406 27.3904C174.724 25.4199 173.892 22.8699 173.892 19.7789C173.892 16.205 174.724 13.3845 176.368 11.3367C178.012 9.28893 180.217 8.26505 182.982 8.26505C184.259 8.26505 185.381 8.53551 186.367 9.09574ZM187.721 24.029C188.533 22.8699 188.94 21.3824 188.94 19.5471C188.94 16.9777 188.282 15.1618 187.005 14.0413C186.212 13.3845 185.284 13.0367 184.24 13.0367C182.634 13.0367 181.454 13.6356 180.7 14.8527C179.946 16.0698 179.578 17.5573 179.578 19.3539C179.578 21.2858 179.965 22.8313 180.719 23.9904C181.493 25.1495 182.634 25.729 184.201 25.729C185.729 25.7484 186.909 25.1688 187.721 24.029Z" fill="white"/>
<path d="M206.095 16.9778C207.121 16.8426 207.836 16.688 208.281 16.4948C209.074 16.1664 209.461 15.6448 209.461 14.93C209.461 14.08 209.151 13.4812 208.552 13.1527C207.952 12.8243 207.063 12.6698 205.883 12.6698C204.568 12.6698 203.639 12.9789 203.098 13.6357C202.711 14.1187 202.44 14.7562 202.324 15.5482H197.024C197.14 13.713 197.663 12.2061 198.572 11.0277C200.022 9.17311 202.517 8.26514 206.076 8.26514C208.378 8.26514 210.428 8.72878 212.227 9.63676C214.026 10.5447 214.915 12.2641 214.915 14.7948V24.3961C214.915 25.0723 214.935 25.8644 214.954 26.811C214.993 27.5258 215.109 28.0087 215.283 28.2792C215.457 28.5303 215.728 28.7428 216.095 28.9167V29.7281H210.138C209.964 29.3031 209.848 28.9167 209.79 28.5303C209.732 28.1633 209.674 27.7383 209.635 27.2553C208.881 28.086 207.991 28.7815 207.005 29.361C205.825 30.0372 204.471 30.3849 202.981 30.3849C201.067 30.3849 199.5 29.844 198.243 28.7621C197.005 27.6803 196.367 26.1541 196.367 24.1643C196.367 21.595 197.372 19.721 199.365 18.5619C200.467 17.9244 202.072 17.4801 204.219 17.2096L206.095 16.9778ZM209.442 19.5279C209.093 19.7404 208.745 19.9142 208.378 20.0495C208.01 20.1847 207.527 20.3006 206.908 20.4165L205.651 20.6483C204.471 20.8608 203.639 21.112 203.136 21.4018C202.266 21.904 201.84 22.6768 201.84 23.72C201.84 24.6473 202.111 25.3234 202.633 25.7484C203.156 26.1735 203.794 26.3666 204.548 26.3666C205.747 26.3666 206.85 26.0189 207.856 25.3234C208.861 24.628 209.384 23.3723 209.422 21.537V19.5279H209.442Z" fill="white"/>
<path d="M229.286 8.26514C229.363 8.26514 229.518 8.28445 229.75 8.30377V13.9062C229.402 13.8675 229.093 13.8482 228.822 13.8289C228.551 13.8096 228.338 13.8096 228.164 13.8096C225.959 13.8096 224.47 14.5244 223.716 15.9539C223.29 16.7653 223.077 18.0017 223.077 19.6824V29.6894H217.584V8.76742H222.826V12.4186C223.677 11.0277 224.412 10.0618 225.031 9.55948C226.056 8.70946 227.391 8.26514 229.035 8.26514C229.131 8.26514 229.228 8.26514 229.286 8.26514Z" fill="white"/>
<path d="M242.554 9.09574C243.541 9.65598 244.353 10.4287 244.953 11.414V1.42627H250.523V29.7087H245.185V26.8109C244.411 28.0473 243.502 28.9552 242.516 29.5155C241.51 30.0757 240.272 30.3655 238.783 30.3655C236.326 30.3655 234.276 29.3803 232.594 27.3904C230.911 25.4199 230.079 22.8699 230.079 19.7789C230.079 16.205 230.911 13.3845 232.555 11.3367C234.199 9.28893 236.404 8.26505 239.17 8.26505C240.446 8.26505 241.568 8.53551 242.554 9.09574ZM243.908 24.029C244.721 22.8699 245.127 21.3824 245.127 19.5471C245.127 16.9777 244.489 15.1618 243.193 14.0413C242.4 13.3845 241.471 13.0367 240.427 13.0367C238.821 13.0367 237.642 13.6356 236.887 14.8527C236.133 16.0698 235.766 17.5573 235.766 19.3539C235.766 21.2858 236.152 22.8313 236.907 23.9904C237.661 25.1495 238.821 25.729 240.388 25.729C241.916 25.7484 243.096 25.1688 243.908 24.029Z" fill="white"/>
<path d="M18.3276 24.4541C17.2445 25.1109 15.9486 25.42 14.4399 25.42C12.4091 25.42 10.6103 24.7052 9.00494 23.2563C7.41894 21.8074 6.62593 19.354 6.62593 15.8766C6.62593 12.4186 7.36091 9.82992 8.83087 8.11057C10.3008 6.39121 12.177 5.52188 14.4593 5.52188C15.6584 5.52188 16.7416 5.73438 17.7086 6.15939C19.4494 6.93213 20.5519 8.28443 20.9967 10.2163H26.8185C26.4897 7.49237 25.2519 5.21278 23.0469 3.37751C20.8613 1.54225 17.9601 0.634277 14.3626 0.634277C10.2041 0.634277 6.85803 2.02521 4.34363 4.78777C1.82922 7.56965 0.572021 11.2402 0.572021 15.8187C0.572021 20.3585 1.82922 23.9325 4.32429 26.5405C6.72264 29.1485 9.79795 30.4428 13.5696 30.4428C15.3877 30.4428 16.9737 30.1337 18.3276 29.5349V24.4541V24.4541Z" fill="white"/>
<path d="M14.4399 14.6018V19.7792H21.8284V27.1589H27.012V14.6018H14.4399Z" fill="#0FB2B7"/>
</svg>
